<svg width="96" height="30" viewBox="0 0 96 30" fill="none" xmlns="http://www.w3.org/2000/svg">
<g clip-path="url(#clip0_2_465)">
<rect width="16" height="4.00003" transform="translate(0 16.3137) rotate(-45)" fill="#FFBDA7"/>
<rect width="20" height="4.00003" transform="translate(7.14209 19.1422) rotate(-45)" fill="#5EABE3"/>
<rect width="24" height="4.00003" transform="translate(14.1128 21.9706) rotate(-45)" fill="#BA68C8"/>
</g>
<path d="M52.5349 13.0447C52.4113 12.657 52.2451 12.3097 52.0363 12.0028C51.8318 11.6918 51.5867 11.4276 51.3012 11.2102C51.0157 10.9886 50.6897 10.8203 50.3232 10.7053C49.961 10.5902 49.5626 10.5327 49.1279 10.5327C48.3907 10.5327 47.7259 10.7223 47.1336 11.1016C46.5413 11.4808 46.0725 12.0369 45.7274 12.7699C45.3865 13.4986 45.216 14.3913 45.216 15.4482C45.216 16.5092 45.3886 17.4062 45.7338 18.1392C46.0789 18.8722 46.5519 19.4283 47.1528 19.8075C47.7536 20.1868 48.4376 20.3764 49.2046 20.3764C49.9163 20.3764 50.5363 20.2315 51.0647 19.9418C51.5974 19.652 52.0086 19.2429 52.2984 18.7145C52.5924 18.1818 52.7394 17.5554 52.7394 16.8352L53.2508 16.9311H49.5051V15.3011H54.6507V16.7905C54.6507 17.8899 54.4163 18.8445 53.9475 19.6541C53.483 20.4595 52.8396 21.0817 52.0171 21.5206C51.199 21.9595 50.2615 22.179 49.2046 22.179C48.02 22.179 46.9802 21.9062 46.0853 21.3608C45.1947 20.8153 44.5001 20.0419 44.0015 19.0405C43.5029 18.0348 43.2536 16.8416 43.2536 15.4609C43.2536 14.4169 43.3985 13.4794 43.6883 12.6484C43.9781 11.8175 44.385 11.1122 44.9092 10.5327C45.4376 9.94886 46.0576 9.50355 46.7693 9.19673C47.4852 8.88565 48.2671 8.73011 49.1151 8.73011C49.8225 8.73011 50.4809 8.83452 51.0903 9.04332C51.7039 9.25213 52.2494 9.54829 52.7267 9.93182C53.2082 10.3153 53.6066 10.7713 53.922 11.2997C54.2373 11.8239 54.4504 12.4055 54.5612 13.0447H52.5349ZM61.1402 22.1982C60.2197 22.1982 59.4165 21.9872 58.7304 21.5653C58.0443 21.1435 57.5116 20.5533 57.1324 19.7947C56.7531 19.0362 56.5635 18.1499 56.5635 17.1357C56.5635 16.1172 56.7531 15.2266 57.1324 14.4638C57.5116 13.701 58.0443 13.1087 58.7304 12.6868C59.4165 12.2649 60.2197 12.054 61.1402 12.054C62.0606 12.054 62.8639 12.2649 63.55 12.6868C64.2361 13.1087 64.7687 13.701 65.148 14.4638C65.5273 15.2266 65.7169 16.1172 65.7169 17.1357C65.7169 18.1499 65.5273 19.0362 65.148 19.7947C64.7687 20.5533 64.2361 21.1435 63.55 21.5653C62.8639 21.9872 62.0606 22.1982 61.1402 22.1982ZM61.1466 20.5938C61.7432 20.5938 62.2375 20.4361 62.6295 20.1207C63.0216 19.8054 63.3113 19.3857 63.4988 18.8615C63.6906 18.3374 63.7865 17.7599 63.7865 17.1293C63.7865 16.5028 63.6906 15.9276 63.4988 15.4034C63.3113 14.875 63.0216 14.451 62.6295 14.1314C62.2375 13.8118 61.7432 13.652 61.1466 13.652C60.5457 13.652 60.0471 13.8118 59.6508 14.1314C59.2588 14.451 58.9669 14.875 58.7751 15.4034C58.5876 15.9276 58.4939 16.5028 58.4939 17.1293C58.4939 17.7599 58.5876 18.3374 58.7751 18.8615C58.9669 19.3857 59.2588 19.8054 59.6508 20.1207C60.0471 20.4361 60.5457 20.5938 61.1466 20.5938ZM72.4333 12.1818V13.7159H67.0704V12.1818H72.4333ZM68.5086 9.82955H70.4198V19.1172C70.4198 19.4879 70.4752 19.767 70.586 19.9545C70.6968 20.1378 70.8396 20.2635 71.0143 20.3317C71.1933 20.3956 71.3872 20.4276 71.596 20.4276C71.7494 20.4276 71.8836 20.4169 71.9987 20.3956C72.1137 20.3743 72.2032 20.3572 72.2671 20.3445L72.6123 21.9233C72.5015 21.9659 72.3438 22.0085 72.1393 22.0511C71.9347 22.098 71.6791 22.1236 71.3722 22.1278C70.8694 22.1364 70.4007 22.0469 69.966 21.8594C69.5313 21.6719 69.1798 21.3821 68.9113 20.9901C68.6428 20.598 68.5086 20.1058 68.5086 19.5135V9.82955ZM74.5475 22V12.1818H76.3948V13.7415H76.4971C76.676 13.2131 76.9914 12.7976 77.4431 12.495C77.8991 12.1882 78.4147 12.0348 78.99 12.0348C79.1093 12.0348 79.2499 12.0391 79.4118 12.0476C79.578 12.0561 79.708 12.0668 79.8018 12.0795V13.9077C79.7251 13.8864 79.5887 13.8629 79.3927 13.8374C79.1966 13.8075 79.0006 13.7926 78.8046 13.7926C78.3529 13.7926 77.9502 13.8885 77.5965 14.0803C77.2471 14.2678 76.9701 14.5298 76.7655 14.8665C76.561 15.1989 76.4587 15.5781 76.4587 16.0043V22H74.5475ZM81.4557 22V12.1818H83.3669V22H81.4557ZM82.4209 10.6669C82.0885 10.6669 81.803 10.5561 81.5644 10.3345C81.33 10.1087 81.2128 9.8402 81.2128 9.52912C81.2128 9.21378 81.33 8.94531 81.5644 8.72372C81.803 8.49787 82.0885 8.38494 82.4209 8.38494C82.7533 8.38494 83.0367 8.49787 83.271 8.72372C83.5097 8.94531 83.629 9.21378 83.629 9.52912C83.629 9.8402 83.5097 10.1087 83.271 10.3345C83.0367 10.5561 82.7533 10.6669 82.4209 10.6669ZM85.9381 25.6818V12.1818H87.8046V13.7734H87.9644C88.0752 13.5689 88.235 13.3324 88.4438 13.0639C88.6526 12.7955 88.9424 12.5611 89.3131 12.3608C89.6839 12.1562 90.1739 12.054 90.7833 12.054C91.5759 12.054 92.2833 12.2543 92.9055 12.6548C93.5276 13.0554 94.0155 13.6328 94.3692 14.3871C94.7272 15.1413 94.9062 16.049 94.9062 17.1101C94.9062 18.1712 94.7293 19.081 94.3756 19.8395C94.0219 20.5937 93.5361 21.1754 92.9182 21.5845C92.3003 21.9893 91.5951 22.1918 90.8025 22.1918C90.2059 22.1918 89.718 22.0916 89.3387 21.8913C88.9637 21.6911 88.6697 21.4567 88.4566 21.1882C88.2435 20.9197 88.0795 20.6811 87.9644 20.4723H87.8493V25.6818H85.9381ZM87.811 17.0909C87.811 17.7812 87.9111 18.3864 88.1114 18.9062C88.3117 19.4261 88.6015 19.8331 88.9807 20.1271C89.36 20.4169 89.8245 20.5618 90.3742 20.5618C90.9452 20.5618 91.4225 20.4105 91.806 20.108C92.1895 19.8011 92.4793 19.3857 92.6753 18.8615C92.8756 18.3374 92.9758 17.7472 92.9758 17.0909C92.9758 16.4432 92.8778 15.8615 92.6817 15.3459C92.49 14.8303 92.2002 14.4233 91.8124 14.125C91.4289 13.8267 90.9495 13.6776 90.3742 13.6776C89.8202 13.6776 89.3515 13.8203 88.968 14.1058C88.5887 14.3913 88.301 14.7898 88.105 15.3011C87.909 15.8125 87.811 16.4091 87.811 17.0909Z" fill="#0A2A42"/>
<defs>
<clipPath id="clip0_2_465">
<rect width="34" height="20" fill="white" transform="translate(0 5)"/>
</clipPath>
</defs>
</svg>
